<?xml version="1.0" encoding="UTF-8" standalone="no"?>
<!-- Creator: CorelDRAW X7 -->

<svg
   xmlns:dc="http://purl.org/dc/elements/1.1/"
   xmlns:cc="http://creativecommons.org/ns#"
   xmlns:rdf="http://www.w3.org/1999/02/22-rdf-syntax-ns#"
   xmlns:svg="http://www.w3.org/2000/svg"
   xmlns="http://www.w3.org/2000/svg"
   xmlns:xlink="http://www.w3.org/1999/xlink"
   xmlns:sodipodi="http://sodipodi.sourceforge.net/DTD/sodipodi-0.dtd"
   xmlns:inkscape="http://www.inkscape.org/namespaces/inkscape"
   xml:space="preserve"
   width="35.3668mm"
   height="35.3668mm"
   version="1.1"
   style="shape-rendering:geometricPrecision; text-rendering:geometricPrecision; image-rendering:optimizeQuality; fill-rule:evenodd; clip-rule:evenodd"
   viewBox="0 0 732 732"
   id="svg18"
   sodipodi:docname="preloader_red.svg"
   inkscape:version="0.92.2 (unknown)"><metadata
     id="metadata22"><rdf:RDF><cc:Work
         rdf:about=""><dc:format>image/svg+xml</dc:format><dc:type
           rdf:resource="http://purl.org/dc/dcmitype/StillImage" /><dc:title></dc:title></cc:Work></rdf:RDF></metadata><sodipodi:namedview
     pagecolor="#ffffff"
     bordercolor="#666666"
     borderopacity="1"
     objecttolerance="10"
     gridtolerance="10"
     guidetolerance="10"
     inkscape:pageopacity="0"
     inkscape:pageshadow="2"
     inkscape:window-width="1920"
     inkscape:window-height="1026"
     id="namedview20"
     showgrid="false"
     inkscape:zoom="3.5310896"
     inkscape:cx="11.625031"
     inkscape:cy="74.126341"
     inkscape:window-x="0"
     inkscape:window-y="0"
     inkscape:window-maximized="1"
     inkscape:current-layer="Слой_x0020_1" /><defs
     id="defs4"><linearGradient
       inkscape:collect="always"
       id="linearGradient2319"><stop
         style="stop-color:#ff0400;stop-opacity:1;"
         offset="0"
         id="stop2315" /><stop
         style="stop-color:#ff0400;stop-opacity:0;"
         offset="1"
         id="stop2317" /></linearGradient><linearGradient
       inkscape:collect="always"
       id="linearGradient851"><stop
         style="stop-color:#ff0000;stop-opacity:1;"
         offset="0"
         id="stop847" /><stop
         style="stop-color:#ff0000;stop-opacity:0;"
         offset="1"
         id="stop849" /></linearGradient><style
       type="text/css"
       id="style2"><![CDATA[
    .str0 {stroke:black;stroke-width:31.0512}
    .fil0 {fill:none}
    .fil1 {fill:black;fill-rule:nonzero}
   ]]></style><linearGradient
       inkscape:collect="always"
       xlink:href="#linearGradient851"
       id="linearGradient853"
       x1="-0.5"
       y1="366"
       x2="732.5"
       y2="366"
       gradientUnits="userSpaceOnUse" /><linearGradient
       inkscape:collect="always"
       xlink:href="#linearGradient2319"
       id="linearGradient2321"
       x1="80.5"
       y1="366"
       x2="651.5"
       y2="366"
       gradientUnits="userSpaceOnUse" /></defs><g
     id="Слой_x0020_1"><metadata
       id="CorelCorpID_0Corel-Layer" /><circle
       class="fil0 str0"
       cx="366"
       cy="366"
       r="57"
       id="circle7" /><circle
       class="fil0 str0"
       cx="366"
       cy="366"
       r="270"
       id="circle9" /><circle
       class="fil0 str0"
       cx="366"
       cy="366"
       r="351"
       id="circle11" /><circle
       id="outer_circle"
       cx="366"
       cy="366"
       r="351"
       stroke="#ff0000"
       stroke-width="31"
       stroke-dasharray="1102 "
       stroke-dashoffset="1102"
       fill="none"
       style="stroke:url(#linearGradient853)" /><circle
       id="innet_circle"
       cx="366"
       cy="366"
       r="270"
       stroke="#ff0000"
       stroke-width="31"
       stroke-dasharray="848 "
       stroke-dashoffset="848"
       fill="none"
       style="stroke:url(#linearGradient2321)" /><path
       class="fil1"
       d="M451 227c-3,0 -6,3 -6,7 0,4 3,7 6,7 4,0 7,-3 7,-7 0,-4 -3,-7 -7,-7zm-170 -13c13,0 22,11 20,23 21,4 43,-6 53,-25 -6,-3 -9,-9 -9,-16 0,-11 10,-20 21,-20 12,0 21,9 21,20 0,7 -3,13 -9,16 10,19 32,29 53,25 -2,-12 7,-23 20,-23 12,0 21,9 21,20 0,12 -10,21 -23,20l-26 41c-36,-30 -78,-30 -114,0l-26 -41c-13,1 -23,-8 -23,-20 0,-11 9,-20 21,-20zm85 -24c-4,0 -7,3 -7,6 0,4 3,7 7,7 4,0 7,-3 7,-7 0,-3 -3,-6 -7,-6zm-85 37c-4,0 -7,3 -7,7 0,4 3,7 7,7 4,0 7,-3 7,-7 0,-4 -3,-7 -7,-7z"
       id="path15" /></g></svg>